<?xml version="1.0" standalone="no"?>
<!DOCTYPE svg PUBLIC "-//W3C//DTD SVG 20010904//EN"
 "http://www.w3.org/TR/2001/REC-SVG-20010904/DTD/svg10.dtd">
<svg version="1.0" xmlns="http://www.w3.org/2000/svg"
 width="1080.000000pt" height="1080.000000pt" viewBox="0 0 1080.000000 1080.000000"
 preserveAspectRatio="xMidYMid meet">
<metadata>
Created by potrace 1.14, written by Peter Selinger 2001-2017
</metadata>
<g transform="translate(0.000000,1080.000000) scale(0.100000,-0.100000)"
fill="#000000" stroke="none">
<path d="M1905 10369 c-217 -14 -399 -49 -565 -107 -244 -86 -482 -271 -627
-488 -80 -119 -165 -307 -202 -447 -56 -210 -52 44 -51 -3977 0 -2400 4 -3730
11 -3795 18 -180 87 -397 171 -535 154 -254 338 -439 533 -537 60 -30 229 -91
315 -113 154 -41 65 -40 3931 -40 3273 0 3716 2 3787 15 217 41 422 120 574
221 106 71 255 223 327 334 126 194 177 316 223 535 l23 110 0 3795 c0 3186
-2 3807 -14 3870 -17 91 -70 263 -115 369 -80 189 -308 479 -445 565 -131 83
-272 141 -433 180 -249 60 30 56 -3808 55 -1933 -1 -3569 -5 -3635 -10z m888
-470 c13 -6 32 -26 42 -45 18 -34 18 -35 -2 -62 -17 -22 -28 -27 -64 -27 -35
0 -46 4 -55 22 -14 30 -7 77 17 102 23 24 29 25 62 10z m6648 -282 c49 -61 53
-76 32 -106 -11 -14 -31 -32 -45 -40 -23 -13 -28 -12 -62 15 -56 45 -56 66 -2
136 28 36 46 35 77 -5z m-5356 -19 c17 -32 18 -39 5 -63 -28 -52 -85 -58 -115
-12 -11 18 -12 31 -4 60 19 68 81 77 114 15z m1734 -39 c27 -29 31 -52 13 -88
-15 -31 -49 -48 -77 -38 -14 6 -45 68 -45 91 0 22 40 56 65 56 13 0 33 -9 44
-21z m2415 -10 c14 -17 26 -41 26 -54 0 -33 -56 -95 -85 -95 -25 0 -85 61 -85
86 0 18 17 52 38 77 25 28 76 22 106 -14z m-782 -106 c22 -20 23 -36 3 -53
-21 -17 -55 -3 -55 24 0 20 16 46 29 46 2 0 13 -7 23 -17z m1260 -50 c22 -20
23 -46 2 -64 -14 -11 -19 -10 -35 10 -40 49 -12 95 33 54z m-6897 -33 c4 -6
13 -59 20 -118 17 -137 22 -151 54 -158 14 -4 31 -10 36 -14 6 -4 62 -24 127
-44 165 -52 163 -65 -15 -111 -54 -14 -111 -34 -127 -45 -35 -25 -59 -74 -71
-148 -14 -86 -23 -114 -42 -126 -26 -16 -36 2 -47 89 -15 109 -25 136 -63 172
-39 36 -68 48 -172 68 -100 20 -117 34 -79 64 14 11 34 21 44 21 37 0 147 43
174 68 36 34 81 131 91 196 3 27 11 59 17 72 11 25 42 32 53 14z m5203 -152
c-7 -19 -38 -22 -38 -4 0 10 9 16 21 16 12 0 19 -5 17 -12z m-1112 -237 c-5
-7 -13 -7 -26 2 -18 11 -19 12 -2 18 20 8 37 -5 28 -20z m-486 0 c0 -13 -28
-22 -35 -11 -3 4 1 11 7 13 20 8 28 8 28 -2z m4292 -8 c22 -20 23 -35 3 -73
-19 -37 -49 -46 -80 -26 -54 36 -35 116 27 116 17 0 40 -7 50 -17z m-4246 -7
c3 -8 12 -12 20 -9 12 4 14 0 8 -21 -5 -20 -2 -26 10 -26 9 0 16 4 16 10 0 5
9 14 21 20 17 9 23 8 33 -5 7 -9 21 -15 31 -13 13 2 21 -4 24 -19 7 -28 25
-18 38 21 10 32 33 47 33 22 0 -9 4 -16 9 -16 5 0 16 -2 23 -5 9 -4 19 4 25
18 9 19 19 24 50 25 35 1 37 0 18 -14 -18 -13 -18 -15 -2 -31 9 -10 17 -12 17
-6 0 15 47 22 79 13 14 -5 20 -9 14 -9 -21 -2 -15 -18 8 -24 15 -4 28 1 41 16
l20 22 -5 -22 c-6 -26 8 -30 29 -8 21 21 34 19 34 -6 0 -18 3 -19 15 -9 18 15
88 -8 81 -26 -7 -18 15 -23 42 -11 16 7 22 17 19 29 -3 10 -1 20 3 23 5 3 10
-5 12 -17 2 -19 9 -23 38 -24 30 0 35 -3 32 -21 -4 -30 13 -36 47 -19 21 11
28 21 24 35 -2 10 0 22 6 25 16 10 32 -30 25 -60 -7 -26 -6 -27 27 -21 19 3
41 7 49 9 10 2 14 -3 12 -16 -3 -19 12 -19 91 -3 6 1 13 -6 15 -15 2 -11 -2
-18 -12 -18 -9 0 -16 -7 -16 -15 0 -18 12 -19 28 -3 8 8 15 8 27 -2 20 -17 32
-5 15 15 -10 13 -9 15 9 15 11 0 21 -4 21 -9 0 -5 11 -12 25 -15 18 -5 23 -11
18 -24 -5 -14 -3 -15 8 -4 19 18 39 15 39 -7 0 -10 8 -21 18 -23 16 -4 18 -1
14 21 -5 24 -4 25 12 12 14 -12 21 -12 37 -3 16 10 21 10 25 -3 4 -10 13 -13
25 -10 13 4 19 1 19 -8 0 -17 28 -33 65 -36 8 0 15 -8 15 -16 0 -8 9 -15 21
-15 13 0 18 4 13 12 -5 8 0 9 17 5 13 -4 32 -7 42 -7 10 0 17 -8 17 -18 0 -16
9 -18 70 -19 77 0 89 -5 71 -27 -10 -12 -7 -15 17 -21 33 -7 54 -4 63 9 8 11
69 -34 69 -51 0 -7 11 -13 26 -13 19 0 25 -4 20 -15 -3 -9 0 -15 9 -15 8 0 14
6 13 12 -2 7 4 13 12 13 10 0 15 -9 15 -27 -1 -20 5 -28 25 -32 19 -3 31 -18
50 -60 14 -31 30 -56 37 -56 6 0 14 -18 18 -40 4 -22 10 -40 15 -40 4 0 14
-23 20 -51 10 -43 10 -53 -1 -60 -8 -5 2 -6 26 -2 36 6 39 5 27 -9 -14 -18
-10 -22 31 -32 24 -6 27 -9 17 -21 -7 -8 -10 -21 -7 -29 3 -7 1 -32 -5 -55 -8
-31 -8 -45 1 -54 6 -6 11 -19 11 -29 0 -10 7 -18 15 -18 9 0 12 6 9 15 -4 8
-1 15 5 15 9 0 13 -8 13 -30 1 -3 -2 -18 -6 -34 -6 -24 -4 -27 9 -22 11 4 15
2 13 -6 -3 -7 -11 -13 -19 -14 -39 -3 -40 -4 -29 -24 8 -15 17 -18 43 -14 29
5 30 4 15 -9 -15 -12 -16 -17 -4 -32 8 -12 18 -15 27 -10 12 8 12 6 1 -8 -8
-9 -11 -21 -7 -27 8 -14 35 -13 35 2 0 6 2 9 5 6 9 -8 -20 -58 -33 -58 -7 0
-10 -5 -6 -11 12 -20 14 -92 3 -106 -9 -9 -7 -22 6 -50 15 -32 19 -35 25 -18
5 13 9 15 14 7 4 -7 13 -9 19 -5 7 3 4 -3 -6 -14 -14 -16 -16 -26 -7 -47 5
-15 7 -38 4 -50 -4 -18 0 -25 18 -30 21 -6 22 -7 6 -19 -22 -17 -36 -69 -17
-65 7 2 17 -9 23 -24 8 -22 6 -31 -9 -48 -18 -20 -18 -20 8 -20 29 0 32 -6 18
-29 -6 -9 -6 -22 1 -34 12 -23 2 -35 -14 -19 -19 19 -33 14 -15 -6 10 -10 17
-22 17 -27 0 -4 8 -14 18 -21 12 -10 14 -16 6 -21 -12 -8 -18 -41 -14 -78 1
-11 4 -15 7 -7 8 21 23 13 23 -13 0 -21 -5 -25 -27 -25 -26 -1 -27 -2 -9 -15
10 -7 15 -18 11 -24 -3 -7 0 -8 9 -5 24 9 33 -26 11 -42 -24 -18 -13 -29 14
-14 24 12 28 -1 6 -20 -8 -7 -15 -26 -15 -42 0 -27 3 -30 25 -24 14 4 25 2 25
-4 0 -10 -14 -14 -37 -11 -25 3 -12 -17 15 -24 l27 -7 -27 -14 c-34 -18 -36
-34 -6 -34 17 0 19 -3 10 -12 -17 -17 -15 -29 3 -22 8 4 15 1 15 -5 0 -6 -4
-11 -9 -11 -16 0 -17 -43 -3 -78 14 -36 7 -61 -11 -43 -17 17 -29 13 -18 -7 7
-13 6 -23 -1 -30 -7 -7 -9 -14 -6 -17 10 -11 36 7 42 28 4 18 7 19 18 8 10
-11 10 -14 1 -18 -7 -3 -13 -14 -13 -25 0 -15 -4 -18 -21 -13 -20 7 -20 6 -4
-18 8 -14 14 -31 13 -38 -2 -8 3 -13 10 -11 7 1 21 -5 30 -15 16 -16 16 -16
-1 -10 -16 6 -18 3 -12 -22 5 -22 2 -32 -12 -40 -16 -9 -15 -10 9 -11 14 0 29
6 31 13 3 6 4 -1 2 -18 -1 -16 -7 -31 -14 -33 -6 -2 -11 -12 -11 -22 0 -19 26
-34 42 -24 6 4 5 -3 -1 -15 -7 -11 -15 -21 -19 -21 -4 0 -8 -8 -8 -17 -1 -10
-4 -31 -8 -48 -6 -29 -6 -29 5 -5 l12 25 10 -34 c9 -28 8 -35 -7 -43 -13 -8
-15 -13 -5 -24 6 -8 9 -25 6 -39 -4 -24 -2 -26 27 -20 20 4 26 3 18 -3 -7 -5
-12 -14 -10 -21 2 -10 -24 -34 -39 -36 -7 -1 21 -85 29 -85 12 0 0 -40 -19
-62 -11 -12 -11 -18 -3 -23 7 -5 10 -19 6 -37 -4 -21 -2 -28 7 -25 6 2 11 11
11 19 -1 8 8 20 18 27 18 11 19 10 12 -11 -5 -13 -7 -36 -6 -51 1 -15 -3 -25
-7 -22 -14 8 -34 -23 -28 -45 3 -11 1 -20 -3 -20 -5 0 -3 -13 3 -30 12 -33 26
-40 23 -13 0 10 7 19 17 21 15 3 17 -1 11 -25 -8 -30 -30 -52 -53 -53 -8 0
-11 -3 -7 -7 10 -11 56 -11 56 -1 0 4 4 8 10 8 13 0 -22 -58 -39 -65 -8 -3
-18 0 -22 7 -4 7 -11 9 -15 6 -9 -10 21 -38 41 -38 9 0 14 -4 11 -8 -3 -5 -6
-26 -7 -48 -1 -21 -8 -50 -16 -62 -20 -32 -8 -41 17 -14 26 28 30 28 22 0 -6
-25 -32 -49 -44 -42 -10 6 -10 -8 -2 -30 3 -9 12 -16 20 -16 18 0 18 -14 -1
-30 -9 -7 -14 -27 -13 -50 0 -20 -2 -42 -6 -48 -4 -7 -1 -12 8 -12 9 0 16 -5
16 -11 0 -6 -6 -9 -14 -6 -10 4 -14 -3 -14 -29 0 -20 -8 -44 -18 -55 -16 -18
-16 -19 5 -19 23 0 42 -31 23 -38 -7 -2 -20 -18 -29 -35 -14 -28 -14 -30 0
-19 18 15 30 2 21 -22 -5 -12 -2 -15 10 -10 9 3 16 1 16 -5 0 -6 -6 -11 -12
-11 -7 0 -18 -11 -25 -25 -10 -22 -9 -25 7 -25 24 0 34 -17 17 -27 -22 -13
-32 -53 -13 -53 20 0 21 -19 1 -26 -31 -12 -3 -72 34 -75 9 -1 -2 -5 -24 -9
-22 -5 -44 -4 -49 1 -6 5 -14 9 -19 9 -6 0 3 -12 18 -26 26 -24 27 -28 12 -39
-20 -14 -17 -58 6 -83 10 -11 14 -26 10 -40 -4 -16 -1 -22 10 -22 11 0 13 -6
10 -21 -6 -20 -7 -20 -18 -6 -7 9 -15 14 -18 10 -10 -9 -9 -53 1 -53 4 0 13
-9 20 -21 11 -17 11 -25 -3 -45 -12 -18 -13 -29 -5 -43 12 -23 1 -34 -20 -20
-22 13 -40 11 -40 -5 0 -7 8 -16 19 -19 15 -4 18 -13 16 -59 -1 -51 0 -55 19
-51 20 4 19 3 -3 -15 -20 -16 -22 -22 -12 -40 11 -20 9 -22 -13 -22 -24 0 -41
-23 -30 -41 3 -5 12 -9 20 -9 8 0 13 4 9 9 -3 6 3 15 14 21 18 9 20 8 14 -7
-4 -10 -14 -29 -24 -43 -19 -29 -35 -85 -21 -76 6 3 15 -1 22 -9 10 -12 9 -16
-4 -21 -9 -3 -16 -12 -16 -20 0 -20 -18 -17 -23 3 -3 12 -5 9 -6 -7 -1 -30 16
-51 35 -43 34 13 -1 -44 -37 -61 -8 -3 1 -4 19 -1 32 4 37 -1 32 -34 -1 -9 11
-4 30 12 17 15 40 27 49 27 26 0 67 -35 85 -71 14 -27 14 -34 1 -59 -17 -33
-61 -70 -83 -70 -9 0 -31 14 -49 32 -18 17 -35 29 -39 26 -3 -4 4 -16 15 -27
26 -26 27 -41 4 -41 -10 -1 -29 -7 -42 -14 -23 -13 -23 -13 -2 -19 27 -7 27
-23 1 -30 -26 -7 -26 -33 0 -47 25 -13 16 -34 -11 -27 -22 6 -22 6 -9 -27 6
-17 6 -26 -1 -26 -6 0 -6 -6 1 -19 5 -11 10 -22 10 -25 0 -11 -36 -6 -48 6 -9
9 -12 7 -12 -9 0 -13 8 -24 21 -28 16 -6 19 -12 14 -36 -5 -24 -3 -29 12 -30
10 0 13 -3 6 -6 -7 -2 -13 -12 -13 -20 0 -9 -8 -21 -17 -28 -14 -11 -15 -16
-5 -28 15 -18 0 -32 -23 -23 -23 8 -18 -14 8 -37 15 -13 18 -21 10 -24 -15 -6
-17 -33 -3 -33 18 0 11 -29 -10 -40 -23 -12 -28 -35 -6 -27 22 9 41 -19 21
-30 -9 -5 -17 -22 -18 -38 -3 -35 -22 -41 -124 -44 -39 -1 -95 -5 -124 -10
-30 -5 -101 -6 -159 -2 l-105 6 3 65 c2 36 8 94 12 130 6 38 5 285 -1 600 -6
307 -8 778 -4 1105 4 314 8 1325 9 2248 2 1487 0 1681 -13 1700 -25 36 -53 56
-96 68 -28 8 -579 11 -1973 11 -1848 -1 -1934 -1 -1969 -19 -23 -11 -44 -33
-56 -57 -19 -35 -19 -40 -4 -65 9 -15 15 -43 15 -62 -1 -19 3 -288 8 -599 5
-311 9 -635 8 -720 -6 -1223 -1 -4331 7 -4371 14 -66 32 -83 78 -74 95 18
3852 27 4030 10 68 -6 78 -15 20 -16 -40 -2 -60 -4 -82 -8 -5 0 -2 -8 7 -16
16 -16 12 -45 -6 -45 -6 0 -8 7 -4 15 3 9 0 15 -9 15 -8 0 -15 -7 -15 -15 0
-8 -6 -15 -14 -15 -7 0 -19 -7 -26 -15 -7 -8 -16 -12 -22 -9 -5 3 -15 1 -23
-6 -7 -6 -19 -10 -27 -9 -7 1 -21 -2 -32 -6 -11 -5 -26 -3 -38 4 -22 14 -33 8
-33 -17 0 -10 -10 -18 -24 -20 -16 -3 -21 0 -16 9 6 9 2 10 -16 5 -43 -13 -54
-12 -51 7 2 9 -2 17 -8 17 -5 0 -10 -11 -10 -25 0 -28 -10 -31 -41 -12 -17 10
-23 9 -26 0 -3 -7 -13 -13 -23 -13 -10 0 -22 -9 -25 -20 -8 -26 -25 -26 -25 0
0 24 -6 25 -28 3 -16 -16 -17 -15 -20 5 -4 23 -17 29 -27 13 -3 -5 -1 -12 5
-16 21 -13 9 -27 -19 -22 -15 3 -33 1 -38 -4 -6 -6 -18 -3 -34 10 l-24 20 23
1 c12 0 22 4 22 9 0 14 -81 -10 -87 -25 -6 -17 -35 -18 -52 -2 -10 11 -14 9
-22 -5 -8 -14 -14 -16 -24 -7 -22 18 -37 2 -30 -32 6 -25 4 -29 -12 -26 -10 2
-19 13 -21 26 -4 24 -21 29 -40 10 -7 -7 -16 -8 -24 -1 -19 14 -51 8 -100 -18
-9 -5 -31 -6 -48 -3 -27 6 -29 8 -13 19 10 7 21 11 25 9 5 -3 8 -1 8 4 0 36
-67 -3 -83 -48 -4 -10 -6 -8 -6 7 -1 21 -21 44 -21 24 0 -6 -9 -11 -20 -11
-11 0 -20 -4 -20 -10 0 -18 -27 -10 -43 13 l-16 22 0 -22 c-1 -29 -15 -29 -41
-1 -11 12 -20 16 -20 10 0 -7 -6 -12 -14 -12 -7 0 -21 -11 -30 -25 -20 -30
-42 -35 -26 -6 7 13 7 22 0 26 -6 3 -13 -1 -16 -9 -3 -9 -10 -14 -14 -11 -4 3
-13 -2 -20 -10 -20 -24 -33 -18 -26 12 3 16 3 22 0 16 -3 -7 -12 -13 -20 -13
-8 0 -17 -7 -20 -15 -4 -8 -10 -15 -15 -15 -5 0 -9 7 -9 15 0 8 5 15 10 15 6
0 10 5 10 11 0 8 -5 7 -15 -1 -9 -7 -18 -10 -22 -7 -3 3 -21 0 -40 -8 -47 -20
-77 -20 -69 0 8 23 -31 -4 -41 -28 -11 -24 -69 -32 -77 -11 -8 21 -36 17 -36
-6 0 -11 -7 -20 -15 -20 -8 0 -15 5 -15 10 0 6 5 10 10 10 6 0 10 7 10 15 0
10 -10 15 -29 15 -16 0 -31 -6 -35 -15 -7 -19 -20 -19 -38 -2 -17 17 -72 32
-63 17 8 -13 -25 -26 -34 -13 -7 11 -46 10 -75 -2 -13 -6 -21 -3 -28 8 -9 18
-38 23 -38 8 0 -5 -13 -11 -30 -13 -25 -4 -30 -1 -30 15 0 17 -5 18 -35 13
-41 -8 -97 18 -88 41 3 7 0 13 -7 13 -6 0 -10 -10 -8 -22 2 -16 -4 -23 -24
-29 -22 -6 -25 -4 -21 9 5 12 2 14 -13 8 -42 -18 -54 -18 -60 -2 -8 20 -33 21
-40 1 -7 -18 -30 -20 -38 -2 -5 10 -7 10 -12 0 -7 -15 -34 -17 -34 -4 0 16 23
25 52 22 16 -1 28 2 28 8 0 6 -16 11 -35 11 -26 0 -35 4 -36 18 0 13 -2 14 -6
2 -2 -8 -9 -25 -15 -37 -12 -24 -8 -25 -123 3 -50 13 -61 13 -70 1 -5 -7 -21
-16 -33 -20 -21 -5 -23 -3 -18 18 5 19 3 22 -12 18 -10 -2 -24 3 -31 11 -14
17 -51 22 -51 7 0 -5 10 -11 22 -15 21 -5 22 -7 6 -22 -21 -21 -48 -11 -48 17
0 18 -2 19 -15 9 -8 -7 -15 -9 -15 -4 0 4 -5 3 -12 -4 -9 -9 -19 -6 -44 13
l-33 25 -3 -27 c-3 -30 -28 -44 -28 -16 0 25 -47 47 -58 27 -6 -11 -13 -8 -30
16 -22 29 -52 41 -52 20 0 -5 -9 -10 -20 -10 -11 0 -20 5 -20 10 0 21 -20 9
-21 -12 -1 -19 -2 -19 -6 -5 -3 12 -10 16 -20 13 -9 -4 -22 -1 -29 5 -8 6 -25
8 -39 5 -24 -6 -25 -5 -15 14 7 13 7 20 0 20 -5 0 -10 -6 -11 -12 0 -10 -2
-10 -6 0 -5 14 -43 17 -43 3 0 -5 6 -11 13 -14 6 -2 2 -2 -10 0 -18 3 -23 -1
-24 -19 0 -16 -4 -11 -12 16 -7 22 -18 41 -26 44 -10 3 -11 0 -2 -16 14 -27
14 -32 -2 -32 -8 0 -22 9 -33 21 -15 17 -16 22 -4 29 8 5 11 12 8 15 -12 12
-28 -5 -28 -29 0 -13 -6 -29 -13 -35 -11 -8 -13 -6 -13 11 1 17 -7 24 -37 33
-21 6 -42 16 -46 23 -4 7 -23 10 -51 8 -46 -5 -70 9 -71 41 0 16 -2 15 -16 -5
-17 -25 -33 -29 -33 -9 0 9 -12 14 -31 15 -51 1 -108 13 -115 23 -3 5 -25 9
-49 9 -24 0 -46 4 -49 9 -3 4 -58 11 -123 15 -231 12 -283 24 -296 71 -5 17
-13 38 -18 48 -7 13 -5 17 12 17 12 0 19 5 16 13 -2 6 -12 11 -21 11 -9 -1
-16 4 -16 12 0 8 5 14 11 14 6 0 8 8 5 18 -2 9 -8 32 -11 50 -6 31 -5 33 13
23 17 -9 19 -7 14 14 -5 28 -12 31 -30 13 -6 -6 -15 -8 -19 -3 -5 4 -2 10 5
12 6 3 12 13 12 24 0 11 6 22 14 25 7 3 13 16 14 30 0 27 -2 28 -29 14 -11 -6
-19 -7 -19 -1 0 5 6 11 14 14 9 4 12 14 9 26 -5 19 -2 20 28 16 29 -5 31 -4
12 4 -28 13 -32 57 -5 65 9 2 0 2 -21 -1 l-38 -5 26 28 c27 29 18 47 -11 23
-10 -8 -18 -9 -25 -2 -8 8 -4 13 11 18 18 6 20 9 9 16 -12 7 -12 12 -1 29 9
14 10 26 3 38 -6 9 -11 13 -11 8 0 -5 -7 -3 -16 5 -13 10 -17 10 -25 -2 -7
-11 -9 -9 -9 9 0 12 5 31 12 42 16 26 2 39 -16 14 -14 -18 -15 -18 -26 10 -11
31 -9 39 17 42 9 2 28 6 42 9 l26 7 -22 9 c-23 8 -32 29 -13 29 6 0 10 7 10
15 0 8 -4 15 -9 15 -11 0 -21 -25 -21 -51 0 -10 -6 -19 -14 -19 -9 0 -12 7 -9
18 3 12 -4 23 -22 32 l-25 14 31 13 c17 7 35 10 40 7 5 -3 9 1 9 9 0 9 -9 12
-30 9 -17 -2 -30 -8 -30 -13 0 -5 -4 -9 -10 -9 -5 0 -10 7 -10 16 0 9 -8 23
-17 30 -16 12 -16 13 9 14 14 0 28 -5 30 -12 3 -8 13 -8 37 3 l32 14 -38 5
c-37 5 -38 6 -35 40 2 19 8 37 13 38 14 5 11 50 -3 55 -10 3 -10 10 2 31 12
24 12 28 0 36 -13 8 -12 10 1 10 9 0 19 7 23 15 3 9 0 15 -9 15 -12 0 -14 8
-9 38 3 20 8 51 11 68 4 25 0 34 -21 48 -15 9 -24 21 -21 27 4 5 -1 12 -9 15
-23 9 -20 41 5 47 16 4 19 11 14 26 -4 12 -2 21 4 21 6 0 11 5 11 11 0 7 -10
9 -25 5 -14 -4 -25 -2 -25 4 0 5 9 10 20 10 25 0 25 9 3 26 -17 13 -17 15 0
28 21 17 22 45 1 53 -10 4 -14 13 -10 29 3 12 2 24 -3 26 -4 2 -12 14 -16 28
-6 20 -5 23 6 12 21 -20 28 -14 26 21 -2 27 -6 33 -19 29 -24 -6 -23 7 3 34
25 27 18 64 -13 64 -25 0 -18 24 9 28 24 4 49 48 30 55 -17 6 -38 -3 -32 -13
3 -5 0 -12 -6 -16 -8 -4 -9 2 -5 23 4 18 1 40 -8 58 -17 33 -14 44 8 26 8 -7
12 -19 9 -27 -9 -24 14 -16 31 11 12 18 13 25 4 25 -7 0 -19 4 -27 9 -12 8
-12 13 -3 24 10 11 9 17 -2 27 -9 6 -20 9 -26 5 -6 -4 -9 -1 -8 7 2 9 -7 12
-27 11 -16 -1 -22 1 -12 4 9 2 17 13 17 24 0 10 4 19 8 19 12 0 12 41 0 63 -8
16 -7 23 7 33 17 12 17 14 -1 31 -16 17 -16 18 -1 21 18 4 24 22 8 22 -5 0 -8
12 -7 27 2 16 9 28 16 28 19 0 23 42 5 49 -16 6 -21 36 -7 36 5 0 17 -9 27
-20 20 -22 35 -26 35 -10 0 6 -7 10 -15 10 -8 0 -15 7 -15 15 0 9 -9 15 -25
15 -14 0 -25 4 -25 9 0 5 -11 12 -24 15 -47 12 -46 84 2 129 15 14 36 27 46
29 11 1 20 11 22 20 1 10 9 25 18 33 12 13 13 21 4 40 -8 19 -8 28 2 40 10 12
10 19 2 27 -9 9 -12 8 -12 -5 0 -21 -16 -22 -36 -3 -19 20 -18 26 5 26 11 0
22 4 26 10 3 5 13 6 23 3 15 -6 15 -4 -2 15 -19 21 -19 23 -1 42 18 20 18 21
-3 27 -19 5 -20 8 -10 21 11 13 10 15 -4 9 -12 -4 -18 -2 -18 8 0 7 10 15 23
17 16 2 23 11 25 32 3 23 0 28 -12 23 -9 -4 -16 -4 -16 -1 0 10 28 34 39 34 6
0 11 8 11 18 0 9 3 28 7 41 4 18 2 22 -8 19 -8 -3 -14 -16 -14 -29 0 -17 -6
-25 -21 -27 -18 -3 -21 1 -17 22 3 15 9 26 14 26 5 0 9 7 9 16 0 8 4 13 8 10
13 -8 42 32 36 49 -10 24 5 65 24 66 16 1 16 2 0 6 -10 2 -18 11 -18 19 0 11
-6 13 -20 9 -11 -3 -20 -2 -20 4 0 21 13 41 27 41 35 0 58 55 27 67 -8 3 -13
12 -10 19 3 8 -1 14 -9 14 -17 0 -20 26 -5 35 6 4 17 1 25 -5 12 -10 15 -9 15
9 0 14 -6 21 -18 21 -10 0 -19 7 -19 15 0 8 9 15 19 15 25 0 23 16 -3 23 -15
4 -20 11 -15 22 3 9 6 23 6 31 0 8 6 14 14 14 8 0 16 7 20 15 3 8 13 15 21 15
14 0 15 8 9 45 -6 41 -5 45 15 45 28 0 27 5 -14 43 -38 36 -37 56 1 30 31 -20
37 -14 19 20 -14 28 -12 31 18 28 21 -3 23 17 2 25 -18 7 -20 41 -3 46 8 3 7
13 -5 36 -8 18 -12 32 -8 32 3 0 12 14 18 30 8 21 16 28 27 24 18 -7 20 4 5
26 -8 11 -12 12 -16 3 -5 -15 -33 -18 -33 -4 0 6 5 13 10 16 6 3 10 15 10 26
0 22 25 26 34 4 3 -8 11 -15 18 -14 10 0 10 2 1 6 -7 2 -13 13 -13 24 0 13 -6
19 -16 17 -21 -4 -27 41 -7 49 10 4 11 9 2 19 -12 15 -3 38 12 29 5 -4 21 6
36 22 l28 27 -40 8 c-29 6 -41 13 -41 26 0 12 8 18 21 18 20 -1 24 13 10 47
-5 13 -3 17 11 15 25 -4 30 16 5 20 -20 3 -35 28 -25 43 8 14 34 11 40 -5 3
-8 13 -17 21 -20 12 -5 13 -4 5 7 -7 8 -9 17 -5 20 3 4 -2 16 -13 28 -18 20
-18 21 4 38 l23 17 -25 12 c-17 8 -26 19 -26 34 1 23 1 23 15 -2 14 -27 17
-24 29 33 4 15 2 27 -4 27 -5 0 -10 7 -10 15 0 10 7 15 18 13 17 -3 21 12 23
90 1 25 5 32 21 32 10 0 16 5 13 10 -4 7 -12 7 -25 0 -27 -15 -47 -12 -26 3
14 10 16 21 11 50 -4 20 -11 37 -16 37 -5 0 -9 5 -9 12 0 6 7 4 18 -5 27 -25
46 -22 32 3 -9 16 -8 22 4 26 13 5 12 9 -7 25 -16 13 -18 18 -7 19 39 1 59 70
27 91 -14 10 1 29 18 22 8 -3 15 0 15 6 0 6 -4 11 -10 11 -5 0 -10 5 -10 10 0
6 7 10 17 10 15 0 15 1 0 18 -20 22 -22 39 -4 45 9 3 9 7 0 19 -11 12 -6 22
23 57 24 28 34 48 31 61 -3 11 -1 18 3 15 12 -7 23 14 27 50 7 68 10 74 43 65
35 -10 37 -7 10 22 -15 16 -17 25 -9 40 8 14 5 27 -11 53 -12 19 -19 41 -17
48 4 7 6 6 6 -4 1 -21 36 -31 64 -19 12 5 17 9 10 9 -6 1 -9 10 -5 23 4 17 2
20 -11 15 -11 -4 -17 -1 -17 8 0 8 7 15 16 15 11 0 15 6 11 20 -4 15 1 22 19
26 13 3 29 19 36 35 7 16 18 29 24 29 11 0 44 42 44 55 0 3 -8 5 -17 6 -14 0
-12 3 5 10 13 5 20 13 17 19 -3 5 1 10 10 10 9 0 14 4 11 9 -6 10 17 33 30 30
22 -4 34 2 34 17 0 11 6 14 20 9 12 -4 27 -1 35 5 11 9 15 9 15 1 0 -20 16
-12 28 14 6 14 16 25 22 25 14 0 12 -27 -2 -33 -7 -2 -10 -7 -7 -11 4 -4 23 7
43 25 28 24 40 29 48 21 9 -9 18 -6 35 10 18 17 25 19 38 8 10 -8 19 -9 28 -3
6 5 34 18 61 28 40 14 50 15 57 4 11 -18 21 -6 22 24 0 20 4 23 23 19 14 -2
24 0 24 7 0 6 -6 11 -14 11 -8 0 -16 6 -19 14 -4 9 -15 13 -29 10 -19 -4 -20
-3 -4 4 23 10 87 -17 81 -35 -7 -21 7 -22 29 -2 21 20 21 21 2 35 -11 7 -17
17 -13 20 6 6 18 -2 59 -39 19 -18 20 -18 35 3 10 15 18 18 27 11 7 -6 17 -6
26 -1 12 8 10 10 -8 10 -24 0 -27 24 -4 26 25 3 25 4 7 17 -14 11 -15 16 -5
22 7 4 15 4 19 -1 3 -5 18 -15 32 -21 35 -15 70 6 62 38 -5 16 -3 20 6 15 8
-5 10 -19 6 -37 -8 -35 -2 -36 33 -8 23 18 27 19 30 5 4 -19 18 -21 25 -3 4 9
8 8 17 -3 10 -13 11 -13 6 3 -3 9 -1 17 4 17 6 0 10 7 10 15 0 18 12 19 28 3
9 -9 18 -9 37 0 13 6 31 9 40 6 17 -7 49 21 40 36 -3 5 -13 10 -21 10 -8 0
-14 5 -14 10 0 6 9 10 20 10 11 0 20 -7 20 -15 0 -8 5 -15 11 -15 7 0 9 -10 7
-24 -3 -14 -1 -31 3 -38 7 -10 9 -10 10 2 5 51 7 61 18 73 12 15 61 11 61 -5
0 -5 5 -6 10 -3 6 4 22 -1 36 -10 14 -9 31 -14 37 -11 7 2 4 5 -5 5 -18 1 -34
41 -25 63 4 8 6 7 6 -4 1 -11 9 -18 21 -18 10 0 23 -7 28 -16 12 -21 82 -11
82 11 0 20 20 19 36 -2 12 -17 14 -17 42 0 38 22 42 21 42 -3 0 -13 7 -20 20
-20 24 0 26 15 5 28 -12 6 -14 14 -6 33 7 17 10 19 10 7 1 -11 9 -18 21 -18
12 0 20 7 21 18 0 14 3 13 16 -5 8 -13 21 -23 29 -23 7 0 17 -8 23 -17 5 -10
13 -15 17 -10 4 4 -1 16 -10 26 -21 23 -13 49 9 31 18 -15 61 -8 57 8 -4 18
50 11 56 -7 3 -10 -2 -12 -20 -8 -20 5 -28 1 -38 -18 -18 -34 -3 -45 22 -16
16 21 22 23 39 13 25 -16 29 -15 29 7 0 25 25 45 47 37 19 -8 8 -22 -22 -29
-11 -3 2 -5 30 -6 37 -1 46 2 37 11 -9 9 -7 14 6 24 26 20 44 17 37 -5 -7 -23
10 -38 19 -16 6 17 36 21 36 5 0 -11 43 -14 53 -4 3 4 2 15 -4 25 -7 15 -6 19
6 19 9 0 18 -6 21 -14z m-604 -48 c-11 -11 -32 -3 -32 12 0 12 34 18 39 7 2
-5 -1 -13 -7 -19z m-126 -35 c-3 -3 -12 0 -20 6 -13 11 -12 15 2 32 17 20 17
20 20 -6 2 -15 1 -29 -2 -32z m-146 32 c0 -8 -4 -15 -10 -15 -5 0 -10 7 -10
15 0 8 5 15 10 15 6 0 10 -7 10 -15z m1590 -11 c0 -8 -5 -12 -10 -9 -6 4 -8
11 -5 16 9 14 15 11 15 -7z m-1869 -68 c-20 -24 -41 -10 -27 19 9 21 13 22 25
10 11 -11 12 -17 2 -29z m-61 -6 c0 -5 -7 -7 -15 -4 -8 4 -15 8 -15 10 0 2 7
4 15 4 8 0 15 -4 15 -10z m2206 -5 c-16 -9 -32 -13 -35 -10 -8 9 21 25 44 25
16 0 14 -3 -9 -15z m-2489 -37 c-3 -7 -5 -2 -5 12 0 14 2 19 5 13 2 -7 2 -19
0 -25z m75 -6 c-7 -2 -12 -10 -12 -18 0 -14 -12 -19 -22 -8 -9 8 25 42 37 36
5 -3 4 -7 -3 -10z m2658 -8 c0 -8 -4 -12 -10 -9 -5 3 -10 10 -10 16 0 5 5 9
10 9 6 0 10 -7 10 -16z m70 -24 c0 -5 -4 -10 -10 -10 -5 0 -10 5 -10 10 0 6 5
10 10 10 6 0 10 -4 10 -10z m-2977 -64 c-22 -30 -64 -55 -81 -49 -17 7 -4 23
19 23 10 0 19 7 19 15 0 8 9 15 20 15 15 0 20 7 20 28 1 23 2 24 11 10 7 -13
5 -24 -8 -42z m3187 4 c0 -5 -4 -10 -10 -10 -5 0 -10 5 -10 10 0 6 5 10 10 10
6 0 10 -4 10 -10z m40 -4 c0 -11 -19 -15 -25 -6 -3 5 1 10 9 10 9 0 16 -2 16
-4z m130 -52 c0 -14 -3 -14 -15 -4 -8 7 -15 14 -15 16 0 2 7 4 15 4 8 0 15 -7
15 -16z m-3660 -30 c0 -8 -4 -12 -10 -9 -5 3 -10 10 -10 16 0 5 5 9 10 9 6 0
10 -7 10 -16z m3810 12 c0 -11 -19 -15 -25 -6 -3 5 1 10 9 10 9 0 16 -2 16 -4z
m-3679 -258 c1 -18 0 -458 -1 -978 l-1 -945 -52 0 -52 0 -3 969 c-2 769 0 971
10 978 7 4 32 8 56 8 41 0 42 -1 43 -32z m5416 -33 c103 -24 244 -112 319
-200 51 -59 104 -149 103 -174 0 -10 -2 -12 -6 -3 -6 15 -30 16 -35 1 -2 -6
-16 -11 -31 -11 -15 0 -27 -4 -27 -8 0 -4 -14 -7 -32 -8 -17 0 -34 -6 -38 -12
-4 -7 -19 -13 -34 -13 -14 -1 -26 -5 -26 -9 0 -5 -13 -8 -29 -8 -16 0 -34 -6
-41 -14 -6 -8 -18 -12 -26 -9 -7 3 -16 -1 -19 -9 -4 -10 -16 -13 -37 -10 -26
4 -30 2 -25 -12 5 -13 2 -17 -11 -15 -49 6 -132 -30 -132 -59 0 -18 -29 -22
-39 -5 -8 15 -11 15 -27 3 -9 -8 -25 -14 -35 -12 -10 2 -23 -6 -30 -20 -16
-31 -30 -39 -56 -33 -16 4 -24 -2 -35 -25 -12 -28 -60 -56 -78 -45 -4 3 -10
-5 -14 -18 -5 -18 -8 -19 -16 -7 -8 13 -11 12 -23 -4 -10 -14 -25 -19 -51 -18
-20 1 -36 -3 -36 -8 0 -6 -11 -8 -26 -4 -17 4 -29 2 -34 -6 -12 -19 -95 -23
-110 -5 -8 9 -21 13 -35 9 -20 -5 -25 -1 -34 33 -6 21 -11 68 -11 105 0 37 -4
69 -9 73 -14 8 -110 -37 -148 -69 -17 -15 -37 -43 -43 -62 -11 -32 -10 -40 7
-63 33 -44 97 -70 293 -115 303 -70 544 -95 748 -76 331 30 672 148 672 234 0
26 -77 98 -145 137 -86 48 -97 89 -19 67 106 -29 250 -119 289 -181 17 -27 17
-28 -9 -67 -53 -81 -213 -172 -433 -246 -98 -33 -429 -75 -593 -74 -128 0
-433 52 -590 100 -251 76 -278 88 -323 141 -61 70 -58 134 10 209 59 66 159
121 269 150 38 9 42 14 54 58 33 120 96 215 192 287 80 60 165 103 248 126 82
22 260 25 347 4z m-1357 -89 c0 -3 -4 -8 -10 -11 -5 -3 -10 -1 -10 4 0 6 5 11
10 11 6 0 10 -2 10 -4z m30 -61 c0 -8 -4 -15 -10 -15 -5 0 -10 7 -10 15 0 8 5
15 10 15 6 0 10 -7 10 -15z m-5508 -89 c13 -18 9 -63 -6 -75 -8 -7 -27 -11
-43 -9 -25 3 -28 7 -31 46 -3 36 0 43 20 51 25 9 49 4 60 -13z m5573 -136 c-3
-5 -10 -10 -16 -10 -5 0 -9 5 -9 10 0 6 7 10 16 10 8 0 12 -4 9 -10z m-4701
-25 c-4 -8 -8 -15 -10 -15 -2 0 -4 7 -4 15 0 8 4 15 10 15 5 0 7 -7 4 -15z
m-1772 -62 c36 -34 36 -67 -2 -104 -33 -34 -58 -33 -97 4 -29 26 -37 51 -24
76 31 57 78 67 123 24z m1282 -176 c35 -45 34 -80 -3 -106 -46 -33 -83 -24
-109 26 -18 33 -14 54 15 85 36 38 66 36 97 -5z m5316 29 c0 -3 -4 -8 -10 -11
-5 -3 -10 -1 -10 4 0 6 5 11 10 11 6 0 10 -2 10 -4z m820 -66 c0 -5 -4 -10
-10 -10 -5 0 -10 5 -10 10 0 6 5 10 10 10 6 0 10 -4 10 -10z m-5773 -282 c-3
-8 -6 -5 -6 6 -1 11 2 17 5 13 3 -3 4 -12 1 -19z m-8 -41 c8 -10 7 -14 -4 -14
-8 0 -15 6 -15 14 0 7 2 13 4 13 2 0 9 -6 15 -13z m-1227 -164 c9 -10 23 -32
31 -49 9 -17 29 -37 46 -44 44 -18 47 -39 8 -55 -41 -17 -53 -31 -61 -72 -4
-17 -14 -37 -22 -43 -20 -17 -44 -5 -44 22 0 46 -23 73 -65 78 -34 4 -40 9
-43 31 -3 23 3 28 42 43 26 10 46 22 46 27 0 19 29 79 38 79 5 0 16 -8 24 -17z
m6258 -3 c0 -5 -4 -10 -10 -10 -5 0 -10 5 -10 10 0 6 5 10 10 10 6 0 10 -4 10
-10z m-5060 -9 c0 -17 -18 -21 -24 -6 -3 9 0 15 9 15 8 0 15 -4 15 -9z m5067
-203 c-3 -8 -6 -5 -6 6 -1 11 2 17 5 13 3 -3 4 -12 1 -19z m-5077 -68 c0 -5
-9 -10 -21 -10 -11 0 -17 5 -14 10 3 6 13 10 21 10 8 0 14 -4 14 -10z m5798
-406 c30 -21 27 -80 -4 -101 -19 -12 -24 -11 -45 5 -17 15 -23 29 -22 57 2 53
29 69 71 39z m-7419 -30 c28 -35 26 -65 -3 -93 -31 -29 -73 -25 -99 10 -22 30
-17 59 16 89 29 27 62 25 86 -6z m8364 -46 c20 -26 20 -27 0 -60 -25 -44 -63
-57 -97 -34 -35 22 -35 68 -1 102 32 32 71 29 98 -8z m-7792 -18 c4 -8 12 -46
19 -85 7 -38 17 -87 23 -108 16 -57 81 -101 199 -132 155 -41 133 -93 -61
-140 -99 -25 -148 -79 -150 -170 -2 -46 -26 -116 -43 -126 -28 -16 -42 15 -77
184 -15 69 -48 98 -131 115 -169 35 -175 36 -178 58 -4 31 25 50 122 78 48 14
102 34 120 43 47 28 75 95 92 218 11 80 14 86 36 83 11 -2 24 -10 29 -18z
m886 -82 c-3 -8 -6 -5 -6 6 -1 11 2 17 5 13 3 -3 4 -12 1 -19z m2133 -25 c19
-8 52 -30 72 -50 42 -41 55 -91 43 -170 -9 -64 -63 -117 -134 -132 -31 -7
-188 -11 -407 -10 -196 0 -358 -2 -360 -4 -11 -10 -24 -130 -24 -214 0 -92 0
-93 -25 -93 -13 0 -36 5 -50 12 l-25 11 0 143 0 142 30 26 c17 14 48 30 68 35
20 6 190 13 377 16 187 3 358 8 381 11 51 6 64 30 64 119 0 101 31 95 -486 95
l-442 0 -4 30 c-3 17 0 34 5 37 14 8 644 21 772 16 61 -3 125 -12 145 -20z
m1018 -19 c5 -62 -11 -69 -111 -55 -153 21 -232 10 -262 -36 -16 -24 -17 -47
-13 -213 10 -321 0 -330 -373 -330 -204 0 -212 2 -201 41 5 22 44 29 171 29
152 1 239 14 265 39 20 20 21 35 26 245 5 222 5 225 30 252 43 47 83 57 245
64 231 11 219 13 223 -36z m-3118 21 c-7 -8 -16 -12 -21 -9 -13 8 -1 24 18 24
13 0 13 -3 3 -15z m854 -37 c9 -80 8 -218 -6 -475 -9 -191 -14 -231 -25 -222
-12 11 -28 9 -63 -5 -14 -6 -16 35 -16 359 l0 365 36 14 c60 25 67 22 74 -36z
m3355 27 c19 -11 47 -36 63 -56 27 -34 30 -44 31 -122 2 -94 -7 -112 -67 -143
-45 -23 -350 -37 -641 -30 -146 3 -246 2 -255 -4 -12 -7 -14 -28 -13 -97 2
-48 8 -92 13 -97 8 -8 166 -12 483 -13 l472 -1 3 -41 3 -41 -514 0 c-462 1
-517 2 -529 17 -18 22 -24 224 -8 263 6 15 25 41 41 56 l30 29 424 3 c353 3
426 6 436 18 17 21 24 146 10 173 -11 19 -20 22 -64 20 -29 -1 -231 1 -449 6
-375 7 -398 9 -403 26 -4 11 -3 28 0 39 7 21 11 21 453 18 426 -3 449 -4 481
-23z m1061 15 c0 -5 -2 -10 -4 -10 -3 0 -8 5 -11 10 -3 6 -1 10 4 10 6 0 11
-4 11 -10z m57 -256 c-3 -3 -12 -4 -19 -1 -8 3 -5 6 6 6 11 1 17 -2 13 -5z
m-5378 -61 c-8 -9 -16 -10 -22 -4 -13 13 0 31 19 24 11 -4 12 -8 3 -20z m6126
-97 c39 -59 -15 -128 -71 -92 -28 19 -32 55 -8 91 21 32 59 33 79 1z m-6135
-82 c0 -8 -5 -12 -10 -9 -6 4 -8 11 -5 16 9 14 15 11 15 -7z m5404 -40 c8 -3
12 -12 9 -20 -8 -21 -29 -17 -30 6 -2 22 -1 23 21 14z m-5474 -114 c0 -5 -5
-10 -11 -10 -5 0 -7 5 -4 10 3 6 8 10 11 10 2 0 4 -4 4 -10z m6 -155 c-4 -24
-16 -30 -16 -7 0 12 4 22 9 22 5 0 8 -7 7 -15z m5482 -6 c-2 -6 -8 -10 -13
-10 -5 0 -11 4 -13 10 -2 6 4 11 13 11 9 0 15 -5 13 -11z m1526 -5 c21 -8 32
-70 16 -89 -15 -18 -71 -20 -88 -3 -18 18 -14 56 8 78 21 21 37 24 64 14z
m-4000 -20 c12 -11 16 -35 16 -85 l0 -70 30 16 c40 21 82 19 114 -6 35 -28 34
-67 -3 -103 -29 -28 -29 -28 -13 -69 23 -61 31 -69 64 -62 37 9 36 -1 -4 -25
-68 -41 -111 -21 -147 69 l-21 54 35 30 c28 22 35 36 33 56 -4 32 -41 41 -69
15 -16 -15 -19 -31 -19 -126 l0 -108 -45 0 -45 0 0 200 c0 195 -1 200 -19 190
-25 -13 -41 -13 -41 0 0 14 58 39 92 40 15 0 34 -7 42 -16z m-206 -6 c27 -27
7 -78 -29 -78 -21 0 -49 26 -49 45 0 35 53 58 78 33z m580 0 c27 -27 7 -78
-29 -78 -21 0 -49 26 -49 45 0 35 53 58 78 33z m-2427 -1007 c-10 -49 -18
-971 -12 -1498 3 -335 3 -341 -17 -352 -11 -6 -25 -11 -30 -11 -20 0 -24 198
-28 1497 l-4 1352 48 3 47 3 3 -475 c1 -266 -2 -494 -7 -519z m1643 954 c32
-61 30 -202 -4 -270 -29 -58 -78 -95 -127 -95 -41 0 -88 23 -97 46 -6 15 -10
14 -35 -10 -34 -33 -97 -44 -141 -26 -49 20 -61 57 -73 222 -9 133 -12 148
-29 148 -10 0 -18 5 -18 10 0 6 26 10 59 10 48 0 61 -3 65 -17 2 -10 8 -79 12
-153 3 -74 10 -145 15 -157 11 -31 64 -31 96 -1 26 24 27 45 16 211 -5 85 -8
97 -25 97 -10 0 -18 5 -18 10 0 6 26 10 59 10 48 0 61 -3 65 -17 2 -10 7 -79
11 -153 9 -165 13 -180 58 -180 38 0 59 18 82 73 19 46 20 157 1 201 -12 28
-21 35 -55 41 -48 8 -52 19 -13 34 49 18 73 9 96 -34z m204 -77 c8 -8 12 -49
12 -117 0 -120 6 -137 44 -127 35 9 33 -6 -3 -27 -38 -22 -73 -22 -102 2 -21
17 -23 28 -27 134 -4 109 -6 116 -23 107 -22 -13 -29 -13 -29 0 0 29 104 52
128 28z m580 0 c8 -8 12 -49 12 -117 0 -59 4 -112 9 -119 5 -9 17 -11 34 -6
36 8 34 -7 -2 -29 -38 -22 -73 -22 -102 2 -21 17 -23 28 -27 134 -4 109 -6
116 -23 107 -22 -13 -29 -13 -29 0 0 29 104 52 128 28z m-3388 -28 c0 -5 -4
-10 -10 -10 -5 0 -10 5 -10 10 0 6 5 10 10 10 6 0 10 -4 10 -10z m5497 -22
c-3 -8 -6 -5 -6 6 -1 11 2 17 5 13 3 -3 4 -12 1 -19z m0 -50 c-3 -8 -6 -5 -6
6 -1 11 2 17 5 13 3 -3 4 -12 1 -19z m-2 -158 c3 -5 -1 -10 -9 -10 -9 0 -16 5
-16 10 0 6 4 10 9 10 6 0 13 -4 16 -10z m15 -81 c0 -5 -4 -9 -10 -9 -5 0 -10
7 -10 16 0 8 5 12 10 9 6 -3 10 -10 10 -16z m868 -76 c5 -21 16 -65 23 -98 20
-90 46 -113 148 -131 47 -8 93 -21 102 -30 39 -35 -17 -72 -142 -94 -35 -6
-71 -16 -80 -20 -17 -10 -31 -54 -49 -165 -12 -71 -23 -95 -45 -95 -13 0 -20
24 -50 163 -10 46 -25 85 -36 96 -13 12 -51 21 -123 30 -89 11 -106 16 -111
32 -12 37 19 66 78 73 81 10 160 34 173 50 6 9 16 41 23 73 32 155 31 153 57
153 19 0 25 -7 32 -37z m-7814 -43 c57 -21 57 -99 0 -120 -37 -14 -60 -4 -79
32 -20 41 -19 47 7 75 24 26 35 28 72 13z m889 -46 l46 -45 -48 -49 -49 -49
-28 30 c-15 16 -36 31 -46 35 -26 8 -22 36 12 74 17 18 30 37 30 42 0 22 42 3
83 -38z m6037 27 c0 -12 -29 -35 -36 -28 -7 6 17 36 29 37 4 0 7 -4 7 -9z
m-3597 -15 c40 -8 90 -21 109 -29 31 -13 36 -13 45 1 28 45 107 -123 108 -230
0 -43 2 -48 23 -48 13 0 22 -6 22 -15 0 -8 8 -15 18 -15 14 0 15 2 2 10 -13 9
-13 11 0 20 25 16 70 12 78 -7 9 -23 32 -28 32 -8 0 10 10 15 28 15 26 -1 26
-1 8 -15 -18 -13 -18 -15 -3 -15 10 0 20 7 24 16 5 15 7 15 15 0 12 -21 34
-20 42 1 4 10 10 13 14 8 9 -13 35 -13 45 0 4 6 12 3 19 -9 10 -18 11 -18 29
5 18 23 20 23 33 6 11 -14 15 -15 19 -5 4 10 8 10 16 -2 10 -13 13 -13 25 3
14 18 15 18 25 0 10 -17 10 -17 11 2 1 20 1 20 15 1 15 -20 15 -20 15 0 1 18
1 18 11 2 11 -19 39 -25 39 -8 0 28 63 31 491 24 l437 -7 11 -24 c10 -21 8
-27 -11 -44 -22 -18 -47 -18 -767 -14 -676 4 -746 6 -763 21 -10 10 -18 23
-18 31 0 8 -7 21 -15 29 -13 14 -15 14 -15 0 0 -20 -2 -20 -42 3 -100 59 -295
73 -422 32 -38 -12 -87 -31 -109 -42 -21 -11 -41 -18 -44 -15 -10 9 35 216 51
241 21 32 57 55 120 77 62 21 131 23 229 4z m2290 -23 c58 -18 113 -63 132
-108 14 -35 38 -175 31 -182 -2 -2 -29 7 -59 21 -157 71 -343 72 -480 2 l-69
-35 7 60 c10 82 31 157 50 179 26 28 113 71 163 80 60 10 164 3 225 -17z
m-388 -22 c3 -6 -4 -25 -15 -43 -21 -35 -31 -66 -50 -161 -10 -49 -14 -56 -26
-46 -26 21 -4 163 36 227 19 31 43 41 55 23z m1705 -1 c0 -5 -2 -10 -4 -10 -3
0 -8 5 -11 10 -3 6 -1 10 4 10 6 0 11 -4 11 -10z m-5550 -30 c0 -5 -4 -10 -10
-10 -5 0 -10 5 -10 10 0 6 5 10 10 10 6 0 10 -4 10 -10z m5540 -24 c0 -3 -4
-8 -10 -11 -5 -3 -10 -1 -10 4 0 6 5 11 10 11 6 0 10 -2 10 -4z m-3559 -166
c99 -18 187 -71 275 -163 151 -159 183 -243 172 -457 -3 -74 -10 -145 -13
-157 -6 -20 -4 -23 21 -23 50 -1 143 -27 188 -54 56 -33 109 -94 149 -171 28
-54 31 -69 30 -150 0 -149 -62 -283 -162 -352 -164 -113 -343 -94 -487 53 -65
65 -96 126 -109 217 l-7 46 -107 -6 c-126 -7 -238 12 -339 58 -123 56 -279
246 -318 391 -20 74 -20 299 0 355 45 125 150 267 228 307 18 10 47 26 65 37
36 22 130 58 183 69 53 11 170 11 231 0z m2302 -23 c89 -33 201 -111 257 -180
162 -200 181 -461 53 -717 -88 -173 -149 -237 -277 -285 -112 -42 -229 -43
-395 -3 -11 2 -18 -15 -28 -66 -25 -137 -94 -235 -199 -287 -42 -20 -64 -24
-149 -24 -93 0 -105 2 -168 33 -77 38 -149 107 -177 170 -32 70 -46 191 -31
268 29 161 124 255 303 301 l68 17 -7 51 c-5 27 -8 100 -8 160 0 132 24 215
91 315 100 149 230 246 363 270 78 15 232 3 304 -23z m1244 1 c-3 -8 -6 -5 -6
6 -1 11 2 17 5 13 3 -3 4 -12 1 -19z m-3047 -28 c0 -5 -2 -10 -4 -10 -3 0 -8
5 -11 10 -3 6 -1 10 4 10 6 0 11 -4 11 -10z m3054 -46 c23 -9 20 -23 -4 -17
-11 3 -20 9 -20 14 0 11 3 11 24 3z m-1841 -40 c3 -4 -16 -32 -42 -63 -63 -73
-94 -129 -123 -221 -19 -63 -23 -93 -21 -190 2 -63 4 -128 5 -144 3 -27 0 -30
-46 -42 -189 -49 -317 -194 -320 -364 l-1 -58 -90 -7 c-49 -4 -121 -5 -160 -3
l-70 3 -5 81 c-5 72 -10 88 -48 151 -45 76 -116 147 -170 170 -19 8 -65 21
-103 30 -58 13 -69 18 -63 32 3 9 9 75 12 148 4 114 2 140 -17 200 -26 84 -65
153 -125 219 -25 28 -43 54 -39 58 8 8 1418 8 1426 0z m-3655 -45 c-20 -13
-38 -11 -38 5 0 9 8 12 26 8 19 -3 22 -7 12 -13z m5475 -56 c4 -3 2 -12 -4
-20 -9 -10 -15 -10 -25 -2 -8 6 -11 15 -8 20 6 11 28 12 37 2z m-5481 -130
c-3 -16 -7 -22 -10 -15 -4 13 4 42 11 42 2 0 2 -12 -1 -27z m18 -53 c0 -5 -2
-10 -4 -10 -3 0 -8 5 -11 10 -3 6 -1 10 4 10 6 0 11 -4 11 -10z m-605 -70 c55
-61 -27 -147 -87 -91 -24 23 -19 60 12 91 25 25 52 25 75 0z m605 -52 c0 -13
-23 -5 -28 10 -2 7 2 10 12 6 9 -3 16 -11 16 -16z m-15 -78 c3 -5 2 -10 -4
-10 -5 0 -13 5 -16 10 -3 6 -2 10 4 10 5 0 13 -4 16 -10z m5465 -20 c0 -5 -4
-10 -10 -10 -5 0 -10 5 -10 10 0 6 5 10 10 10 6 0 10 -4 10 -10z m-5410 -41
c0 -5 -4 -9 -10 -9 -5 0 -10 7 -10 16 0 8 5 12 10 9 6 -3 10 -10 10 -16z m-40
-9 c0 -5 -4 -10 -10 -10 -5 0 -10 5 -10 10 0 6 5 10 10 10 6 0 10 -4 10 -10z
m1262 -208 c91 -152 165 -226 281 -281 91 -42 157 -55 302 -55 l129 -1 14 -60
c7 -33 15 -70 18 -82 5 -15 -9 -42 -49 -96 -30 -41 -80 -116 -110 -168 -81
-139 -117 -181 -201 -237 -65 -43 -84 -51 -141 -57 -37 -4 -85 -5 -107 -2 -64
9 -179 71 -235 127 -75 75 -96 125 -101 238 -4 104 5 181 75 611 l47 284 21
-80 c11 -44 37 -108 57 -141z m3392 118 c4 -47 9 -96 11 -110 2 -14 7 -59 11
-100 3 -41 8 -88 10 -105 2 -16 6 -124 8 -240 5 -209 1 -256 -33 -363 -29 -93
-92 -161 -195 -208 -66 -30 -125 -33 -215 -9 -94 24 -152 57 -206 117 -56 62
-70 83 -163 250 -70 125 -71 127 -56 157 8 17 21 57 27 90 7 33 15 62 18 65 3
4 54 -1 113 -10 100 -16 112 -16 192 0 159 31 256 100 341 242 52 86 69 125
104 242 11 40 23 72 24 70 2 -2 6 -41 9 -88z m-4614 32 c0 -13 -12 -22 -22
-16 -10 6 -1 24 13 24 5 0 9 -4 9 -8z m-10 -72 c0 -5 -7 -7 -15 -4 -8 4 -15 8
-15 10 0 2 7 4 15 4 8 0 15 -4 15 -10z m6969 -186 c3 -3 -3 -12 -13 -22 -16
-16 -18 -16 -31 2 -8 10 -12 23 -9 28 5 8 42 2 53 -8z m-7038 -65 c40 -43 39
-83 -3 -126 -18 -18 -37 -33 -42 -33 -6 0 -27 14 -46 30 -19 16 -38 30 -42 30
-5 0 -8 15 -8 34 0 26 8 41 35 65 45 39 69 39 106 0z m5466 -11 c-3 -8 -6 -5
-6 6 -1 11 2 17 5 13 3 -3 4 -12 1 -19z m-2327 -188 c0 -19 -7 -20 -170 -20
-135 0 -170 3 -170 13 0 8 3 17 7 20 3 4 80 7 170 7 156 0 163 -1 163 -20z
m3220 -75 c0 -16 -53 -65 -71 -65 -20 1 -59 35 -59 53 0 7 9 22 20 32 11 10
20 24 20 31 0 25 26 21 58 -9 17 -17 32 -36 32 -42z m-6190 -10 c0 -8 -4 -15
-10 -15 -5 0 -10 7 -10 15 0 8 5 15 10 15 6 0 10 -7 10 -15z m5280 -85 c0 -5
-7 -10 -15 -10 -8 0 -15 5 -15 10 0 6 7 10 15 10 8 0 15 -4 15 -10z m-5270
-90 c0 -5 -4 -10 -10 -10 -5 0 -10 5 -10 10 0 6 5 10 10 10 6 0 10 -4 10 -10z
m6887 -142 c18 -18 33 -37 33 -43 0 -20 -56 -65 -81 -65 -22 1 -89 50 -89 67
0 16 65 73 84 73 11 0 35 -14 53 -32z m-6867 -99 c0 -5 -4 -9 -10 -9 -5 0 -10
7 -10 16 0 8 5 12 10 9 6 -3 10 -10 10 -16z m-13 -35 c-3 -3 -12 -4 -19 -1 -8
3 -5 6 6 6 11 1 17 -2 13 -5z m-1501 -118 c22 -35 14 -68 -20 -85 -25 -12 -31
-11 -55 6 -35 26 -39 66 -9 87 33 23 65 20 84 -8z m7743 -98 c120 -60 231
-196 247 -302 4 -22 3 -38 -1 -34 -9 8 -85 -28 -100 -48 -6 -8 -40 -15 -88
-17 -44 -2 -82 -9 -85 -15 -4 -5 -23 -10 -43 -9 -22 0 -43 -6 -53 -16 -10 -9
-25 -17 -34 -17 -9 0 -26 -7 -36 -15 -11 -8 -30 -15 -42 -15 -32 0 -48 -24
-27 -41 9 -8 14 -9 10 -3 -4 7 0 14 8 18 10 3 15 -1 15 -13 0 -21 -22 -33 -45
-25 -15 6 -48 -19 -38 -29 3 -3 -19 -4 -48 -1 -29 3 -55 7 -57 9 -3 2 -14 -7
-24 -21 -11 -14 -28 -24 -37 -22 -23 4 -71 -28 -71 -47 0 -31 -19 -13 -45 43
-24 49 -29 73 -33 167 -4 100 -2 116 22 178 46 121 126 213 234 267 121 61
260 64 371 8z m-7182 -10 c6 -7 13 -44 17 -83 10 -102 23 -140 57 -169 28 -24
122 -57 201 -70 50 -9 86 -39 73 -61 -17 -27 -55 -43 -150 -60 -133 -24 -153
-48 -175 -208 -5 -43 -10 -80 -10 -83 0 -2 -8 -4 -19 -4 -28 0 -41 23 -51 87
-23 144 -46 179 -137 201 -27 6 -79 19 -118 28 -84 19 -102 33 -86 63 7 11 21
21 32 21 37 0 202 51 230 71 30 21 50 73 69 184 15 93 16 95 38 95 11 0 24 -6
29 -12z m5650 -50 c-3 -8 -6 -5 -6 6 -1 11 2 17 5 13 3 -3 4 -12 1 -19z m-87
-68 c0 -5 -5 -10 -11 -10 -5 0 -7 5 -4 10 3 6 8 10 11 10 2 0 4 -4 4 -10z
m-3260 -100 c0 -5 -5 -10 -11 -10 -5 0 -7 5 -4 10 3 6 8 10 11 10 2 0 4 -4 4
-10z m60 -24 c0 -3 -4 -8 -10 -11 -5 -3 -10 -1 -10 4 0 6 5 11 10 11 6 0 10
-2 10 -4z m2450 -5 c0 -5 -9 -7 -20 -4 -11 3 -20 7 -20 9 0 2 9 4 20 4 11 0
20 -4 20 -9z m84 -6 c-4 -8 -11 -15 -16 -15 -6 0 -5 6 2 15 7 8 14 15 16 15 2
0 1 -7 -2 -15z m-139 -5 c3 -5 -1 -10 -9 -10 -9 0 -16 5 -16 10 0 6 4 10 9 10
6 0 13 -4 16 -10z m-1705 -19 c0 -6 -4 -13 -10 -16 -5 -3 -10 1 -10 9 0 9 5
16 10 16 6 0 10 -4 10 -9z m1180 -6 c0 -8 -4 -15 -10 -15 -5 0 -10 7 -10 15 0
8 5 15 10 15 6 0 10 -7 10 -15z m-650 -34 c0 -10 -6 -21 -14 -24 -9 -4 -12 2
-11 16 3 27 3 27 15 27 6 0 10 -9 10 -19z m350 3 c0 -2 -9 -4 -21 -4 -11 0
-18 4 -14 10 5 8 35 3 35 -6z m-435 -10 c13 -5 14 -8 3 -15 -19 -13 -28 -11
-28 6 0 17 2 18 25 9z m385 -4 c0 -5 -2 -10 -4 -10 -3 0 -8 5 -11 10 -3 6 -1
10 4 10 6 0 11 -4 11 -10z m-3369 -656 c17 -47 -9 -82 -52 -69 -22 7 -27 63
-7 83 20 20 48 14 59 -14z m7147 -318 l53 -54 -45 -46 c-24 -25 -48 -46 -53
-46 -5 0 -30 21 -56 48 -33 34 -44 51 -37 61 13 21 74 90 80 91 3 0 29 -24 58
-54z m-8139 15 c30 -42 27 -74 -10 -105 -37 -32 -40 -32 -67 -3 -33 35 -38 77
-12 110 28 36 63 35 89 -2z m1081 -74 c26 -20 50 -60 50 -83 0 -22 -51 -74
-72 -74 -24 0 -78 52 -78 74 0 24 55 96 74 96 6 0 18 -6 26 -13z m5663 -144
c17 -29 17 -34 3 -61 -25 -49 -69 -56 -106 -17 -18 19 -21 31 -16 56 9 47 24
60 65 57 27 -2 39 -10 54 -35z"/>
<path d="M5768 8919 c-20 -11 -24 -39 -7 -39 6 0 17 6 25 14 28 28 15 45 -18
25z"/>
<path d="M5385 8900 c-3 -5 1 -10 9 -10 9 0 16 5 16 10 0 6 -4 10 -9 10 -6 0
-13 -4 -16 -10z"/>
<path d="M4957 8893 c-4 -3 -7 -12 -7 -20 0 -20 28 -15 40 7 9 17 8 20 -8 20
-10 0 -22 -3 -25 -7z"/>
<path d="M5550 8889 c0 -5 5 -7 10 -4 6 3 10 8 10 11 0 2 -4 4 -10 4 -5 0 -10
-5 -10 -11z"/>
<path d="M6026 8865 c-4 -11 2 -24 16 -36 35 -28 42 -23 17 14 -12 17 -23 33
-25 35 -1 2 -4 -4 -8 -13z"/>
<path d="M5848 8863 c7 -3 16 -2 19 1 4 3 -2 6 -13 5 -11 0 -14 -3 -6 -6z"/>
<path d="M4530 8830 c0 -5 7 -10 15 -10 8 0 15 5 15 10 0 6 -7 10 -15 10 -8 0
-15 -4 -15 -10z"/>
<path d="M4751 8831 c-8 -6 -9 -11 -3 -15 6 -3 14 -1 17 5 9 14 2 20 -14 10z"/>
<path d="M5960 8829 c0 -5 5 -7 10 -4 6 3 10 8 10 11 0 2 -4 4 -10 4 -5 0 -10
-5 -10 -11z"/>
<path d="M6233 8823 c-18 -7 -16 -33 2 -33 8 0 15 9 15 20 0 11 -1 20 -2 19
-2 0 -9 -3 -15 -6z"/>
<path d="M4400 8780 c0 -5 5 -10 10 -10 6 0 10 5 10 10 0 6 -4 10 -10 10 -5 0
-10 -4 -10 -10z"/>
<path d="M6265 8780 c-3 -5 -1 -10 4 -10 6 0 11 5 11 10 0 6 -2 10 -4 10 -3 0
-8 -4 -11 -10z"/>
<path d="M4356 8772 c-3 -6 -1 -14 5 -17 15 -10 25 3 12 16 -7 7 -13 7 -17 1z"/>
<path d="M4117 8756 c-4 -10 -5 -21 -2 -24 9 -9 17 6 13 25 -3 17 -4 17 -11
-1z"/>
<path d="M4150 8715 c-8 -9 -8 -15 -2 -15 12 0 26 19 19 26 -2 2 -10 -2 -17
-11z"/>
<path d="M6835 8670 c4 -6 11 -8 16 -5 14 9 11 15 -7 15 -8 0 -12 -5 -9 -10z"/>
<path d="M6881 8664 c0 -11 3 -14 6 -6 3 7 2 16 -1 19 -3 4 -6 -2 -5 -13z"/>
<path d="M7070 8584 c0 -8 5 -12 10 -9 6 4 8 11 5 16 -9 14 -15 11 -15 -7z"/>
<path d="M7310 8520 c0 -5 7 -10 16 -10 8 0 12 5 9 10 -3 6 -10 10 -16 10 -5
0 -9 -4 -9 -10z"/>
<path d="M7515 8371 c-3 -6 4 -15 15 -21 20 -11 21 -10 10 9 -12 23 -16 25
-25 12z"/>
<path d="M7680 8056 c0 -9 7 -16 16 -16 9 0 14 5 12 12 -6 18 -28 21 -28 4z"/>
<path d="M7700 7910 c0 -5 5 -10 11 -10 5 0 7 5 4 10 -3 6 -8 10 -11 10 -2 0
-4 -4 -4 -10z"/>
<path d="M7800 7646 c0 -9 7 -12 20 -9 11 3 20 9 20 14 0 5 -9 9 -20 9 -11 0
-20 -6 -20 -14z"/>
<path d="M7810 7560 c0 -5 5 -10 10 -10 6 0 10 5 10 10 0 6 -4 10 -10 10 -5 0
-10 -4 -10 -10z"/>
<path d="M2990 7325 c0 -8 2 -15 4 -15 2 0 6 7 10 15 3 8 1 15 -4 15 -6 0 -10
-7 -10 -15z"/>
<path d="M2955 7210 c3 -5 8 -10 11 -10 2 0 4 5 4 10 0 6 -5 10 -11 10 -5 0
-7 -4 -4 -10z"/>
<path d="M2905 6810 c3 -5 8 -10 11 -10 2 0 4 5 4 10 0 6 -5 10 -11 10 -5 0
-7 -4 -4 -10z"/>
<path d="M2872 6758 c6 -18 28 -21 28 -4 0 9 -7 16 -16 16 -9 0 -14 -5 -12
-12z"/>
<path d="M2915 6610 c-3 -5 -1 -10 4 -10 6 0 11 5 11 10 0 6 -2 10 -4 10 -3 0
-8 -4 -11 -10z"/>
<path d="M2860 6570 c0 -5 5 -10 10 -10 6 0 10 5 10 10 0 6 -4 10 -10 10 -5 0
-10 -4 -10 -10z"/>
<path d="M7945 6500 c4 -6 11 -8 16 -5 14 9 11 15 -7 15 -8 0 -12 -5 -9 -10z"/>
<path d="M7960 6450 c0 -5 5 -10 11 -10 5 0 7 5 4 10 -3 6 -8 10 -11 10 -2 0
-4 -4 -4 -10z"/>
<path d="M2846 6373 c-6 -14 -5 -15 5 -6 7 7 10 15 7 18 -3 3 -9 -2 -12 -12z"/>
<path d="M2751 6176 c-8 -10 -8 -16 3 -25 11 -9 15 -8 20 5 13 34 -1 47 -23
20z"/>
<path d="M8005 6100 c3 -5 8 -10 11 -10 2 0 4 5 4 10 0 6 -5 10 -11 10 -5 0
-7 -4 -4 -10z"/>
<path d="M8010 6031 c0 -12 6 -21 15 -21 8 0 15 4 15 9 0 5 -7 14 -15 21 -13
10 -15 9 -15 -9z"/>
<path d="M2776 6031 c-4 -7 -5 -15 -2 -18 9 -9 19 4 14 18 -4 11 -6 11 -12 0z"/>
<path d="M2740 5895 c0 -9 5 -15 11 -13 6 2 11 8 11 13 0 5 -5 11 -11 13 -6 2
-11 -4 -11 -13z"/>
<path d="M2670 5050 c-8 -5 -12 -12 -9 -15 4 -3 12 1 19 10 14 17 11 19 -10 5z"/>
<path d="M8061 4964 c0 -11 3 -14 6 -6 3 7 2 16 -1 19 -3 4 -6 -2 -5 -13z"/>
<path d="M2630 4840 c0 -5 7 -10 15 -10 8 0 15 5 15 10 0 6 -7 10 -15 10 -8 0
-15 -4 -15 -10z"/>
<path d="M2618 4783 c6 -2 18 -2 25 0 6 3 1 5 -13 5 -14 0 -19 -2 -12 -5z"/>
<path d="M2655 4750 c-3 -5 1 -10 10 -10 9 0 13 5 10 10 -3 6 -8 10 -10 10 -2
0 -7 -4 -10 -10z"/>
<path d="M2625 4719 c-10 -14 -1 -21 19 -13 9 3 13 10 10 15 -7 12 -21 11 -29
-2z"/>
<path d="M8035 4630 c-3 -5 1 -10 10 -10 9 0 13 5 10 10 -3 6 -8 10 -10 10 -2
0 -7 -4 -10 -10z"/>
<path d="M2698 4433 c7 -3 16 -2 19 1 4 3 -2 6 -13 5 -11 0 -14 -3 -6 -6z"/>
<path d="M2680 4101 c0 -6 5 -13 10 -16 6 -3 10 1 10 9 0 9 -4 16 -10 16 -5 0
-10 -4 -10 -9z"/>
<path d="M8026 4091 c-4 -7 -5 -15 -2 -18 9 -9 19 4 14 18 -4 11 -6 11 -12 0z"/>
<path d="M7990 3916 c0 -10 28 -13 41 -5 10 6 7 9 -13 9 -16 0 -28 -2 -28 -4z"/>
<path d="M8011 3834 c0 -11 3 -14 6 -6 3 7 2 16 -1 19 -3 4 -6 -2 -5 -13z"/>
<path d="M8011 3794 c0 -11 3 -14 6 -6 3 7 2 16 -1 19 -3 4 -6 -2 -5 -13z"/>
<path d="M2695 3550 c-3 -5 1 -10 9 -10 9 0 16 5 16 10 0 6 -4 10 -9 10 -6 0
-13 -4 -16 -10z"/>
<path d="M8022 3385 c0 -16 2 -22 5 -12 2 9 2 23 0 30 -3 6 -5 -1 -5 -18z"/>
<path d="M8015 3270 c3 -5 8 -10 11 -10 2 0 4 5 4 10 0 6 -5 10 -11 10 -5 0
-7 -4 -4 -10z"/>
<path d="M7947 2923 c-4 -3 -7 -13 -7 -21 0 -18 13 -7 16 13 2 17 1 18 -9 8z"/>
<path d="M7905 2720 c-3 -5 -1 -10 4 -10 6 0 11 5 11 10 0 6 -2 10 -4 10 -3 0
-8 -4 -11 -10z"/>
<path d="M7290 2440 c0 -5 12 -10 28 -9 24 0 25 1 7 9 -27 12 -35 12 -35 0z"/>
<path d="M6956 2380 c-15 -5 -16 -9 -7 -14 7 -5 18 -3 24 3 14 14 6 20 -17 11z"/>
<path d="M4261 2334 c0 -11 3 -14 6 -6 3 7 2 16 -1 19 -3 4 -6 -2 -5 -13z"/>
<path d="M6370 2300 c0 -5 5 -10 11 -10 5 0 7 5 4 10 -3 6 -8 10 -11 10 -2 0
-4 -4 -4 -10z"/>
<path d="M4930 2285 c0 -9 9 -15 21 -15 18 0 19 2 9 15 -7 8 -16 15 -21 15 -5
0 -9 -7 -9 -15z"/>
<path d="M6175 2289 c-10 -14 -1 -21 19 -13 9 3 13 10 10 15 -7 12 -21 11 -29
-2z"/>
<path d="M5165 2270 c-19 -8 -19 -9 3 -9 12 -1 22 4 22 9 0 6 -1 10 -2 9 -2 0
-12 -4 -23 -9z"/>
<path d="M5080 2255 c7 -9 15 -13 17 -11 7 7 -7 26 -19 26 -6 0 -6 -6 2 -15z"/>
<path d="M5738 2263 c7 -3 16 -2 19 1 4 3 -2 6 -13 5 -11 0 -14 -3 -6 -6z"/>
<path d="M5445 2240 c3 -5 11 -10 16 -10 6 0 7 5 4 10 -3 6 -11 10 -16 10 -6
0 -7 -4 -4 -10z"/>
<path d="M5170 2230 c0 -5 5 -10 10 -10 6 0 10 5 10 10 0 6 -4 10 -10 10 -5 0
-10 -4 -10 -10z"/>
<path d="M5612 2228 c6 -17 36 -34 44 -25 4 4 -1 14 -12 22 -23 18 -37 19 -32
3z"/>
<path d="M8646 7635 c4 -8 8 -15 10 -15 2 0 4 7 4 15 0 8 -4 15 -10 15 -5 0
-7 -7 -4 -15z"/>
<path d="M4690 4751 c0 -5 5 -13 10 -16 6 -3 10 -2 10 4 0 5 -4 13 -10 16 -5
3 -10 2 -10 -4z"/>
<path d="M4742 4615 c0 -16 2 -22 5 -12 2 9 2 23 0 30 -3 6 -5 -1 -5 -18z"/>
<path d="M4752 4555 c0 -16 2 -22 5 -12 2 9 2 23 0 30 -3 6 -5 -1 -5 -18z"/>
<path d="M4896 4481 c-4 -5 -2 -12 3 -15 5 -4 12 -2 15 3 4 5 2 12 -3 15 -5 4
-12 2 -15 -3z"/>
<path d="M4445 4391 c77 -4 146 -10 153 -14 10 -7 13 -43 11 -145 -1 -95 2
-137 10 -136 6 1 66 3 134 5 l122 3 -125 6 -125 5 -3 125 c-4 167 4 161 -176
158 l-141 -2 140 -5z"/>
<path d="M4393 4330 c-24 -21 -43 -41 -43 -44 0 -4 39 -5 88 -4 51 2 86 7 85
13 -2 6 -22 24 -45 41 l-43 32 -42 -38z m72 -10 c18 -20 17 -20 -23 -20 -44 0
-54 12 -24 29 24 14 26 14 47 -9z"/>
<path d="M4270 4240 l-5 -125 -125 -3 c-166 -3 -160 4 -160 -188 0 -190 -5
-184 165 -184 l125 0 0 -129 c0 -166 -6 -161 176 -161 178 0 173 -4 176 160
l3 125 127 5 c164 6 157 -2 158 188 0 86 -4 142 -10 142 -6 0 -11 -62 -12
-152 l-3 -153 -139 -5 -138 -5 1 -128 c1 -86 -2 -133 -10 -143 -15 -19 -288
-21 -307 -2 -8 8 -12 55 -12 145 l0 132 -137 3 -138 3 0 165 0 165 135 2 135
1 3 66 c2 36 1 96 0 134 -3 49 -5 34 -8 -58z"/>
<path d="M4329 4253 c-1 -4 0 -44 1 -88 2 -79 2 -80 43 -123 68 -71 72 -71
129 -16 l49 49 -3 90 -3 90 -107 3 c-60 1 -108 -1 -109 -5z"/>
<path d="M4137 4033 c-4 -3 -7 -57 -7 -120 0 -112 0 -113 24 -113 13 0 43 -3
67 -6 42 -5 48 -2 107 46 34 28 62 56 62 63 0 7 -23 40 -51 75 l-51 62 -72 0
c-40 0 -76 -3 -79 -7z"/>
<path d="M4553 3983 c-29 -31 -53 -60 -53 -64 0 -4 21 -32 47 -63 51 -61 59
-63 157 -50 l46 7 0 107 c0 122 2 120 -95 120 -47 0 -51 -2 -102 -57z"/>
<path d="M4777 3993 c-10 -10 -8 -161 2 -167 7 -5 55 57 63 81 4 13 -58 94
-65 86z m43 -83 c0 -10 -7 -23 -15 -30 -13 -11 -15 -7 -15 30 0 37 2 41 15 30
8 -7 15 -20 15 -30z"/>
<path d="M4058 3945 c-36 -42 -35 -56 4 -100 39 -46 48 -35 48 63 0 83 -9 89
-52 37z m32 -46 c0 -42 -14 -49 -34 -16 -8 12 -5 21 8 36 11 12 21 21 23 21 1
0 3 -18 3 -41z"/>
<path d="M4382 3808 l-53 -63 3 -80 3 -80 90 -3 c139 -4 135 -7 135 91 l0 83
-58 57 c-32 31 -60 57 -63 57 -3 0 -28 -28 -57 -62z"/>
<path d="M4914 3611 c-209 -95 -251 -388 -77 -540 43 -38 123 -71 173 -71 103
0 219 87 259 195 47 126 19 260 -73 351 -83 81 -192 106 -282 65z"/>
<path d="M4364 3549 c-3 -6 -2 -14 3 -18 5 -3 26 -17 47 -30 l37 -24 35 34
c19 18 34 37 34 41 0 13 -148 10 -156 -3z m101 -29 c-16 -18 -19 -18 -41 -3
-13 8 -24 17 -24 19 0 2 19 4 42 4 40 0 41 0 23 -20z"/>
<path d="M6537 4402 c-13 -14 -17 -45 -19 -152 l-3 -135 -137 -1 c-94 -1 -142
-5 -153 -14 -12 -10 -15 -42 -15 -171 0 -199 -9 -189 177 -189 l133 0 0 -138
c0 -181 -9 -172 177 -172 181 0 173 -8 173 173 l0 137 129 0 c115 0 131 2 155
21 l26 20 0 147 c-1 106 -4 152 -14 165 -11 15 -31 17 -139 17 -69 0 -132 3
-141 6 -14 5 -16 27 -16 139 0 173 8 165 -177 165 -122 0 -142 -2 -156 -18z
m313 -152 l5 -145 139 -3 c82 -1 145 -7 153 -14 18 -15 19 -303 1 -315 -7 -4
-76 -10 -153 -13 l-140 -5 -5 -150 -5 -150 -150 0 -150 0 -3 153 -3 152 -82 1
c-45 0 -108 0 -140 -1 -76 -2 -87 8 -87 79 l0 56 18 -35 c35 -70 124 -100 192
-65 31 16 64 64 74 108 16 66 -41 161 -103 173 -57 12 -32 24 49 24 l80 0 0
143 c0 79 3 147 7 151 4 3 72 5 152 4 l146 -3 5 -145z m-480 -155 c0 -2 -20
-13 -43 -23 -40 -18 -76 -54 -90 -92 -3 -8 -6 13 -6 47 -1 40 3 63 12 66 15 7
127 9 127 2z"/>
<path d="M6645 4360 c-131 -65 -88 -270 56 -270 77 0 135 72 127 159 -6 58
-32 95 -85 117 -42 18 -50 18 -98 -6z m98 -103 c20 -40 37 -76 37 -80 0 -4
-36 -7 -80 -7 -49 0 -80 4 -80 11 0 15 71 149 78 149 4 0 24 -33 45 -73z"/>
<path d="M6665 4250 c-14 -27 -25 -54 -25 -60 0 -12 107 -14 114 -1 7 10 -45
111 -56 111 -4 0 -19 -22 -33 -50z"/>
<path d="M6943 4050 c-67 -40 -87 -139 -42 -204 62 -91 179 -84 230 14 66 122
-72 261 -188 190z"/>
<path d="M6635 3755 c-99 -49 -106 -208 -12 -265 65 -40 154 -15 187 51 67
130 -52 275 -175 214z"/>
<path d="M6077 3619 c-91 -22 -157 -77 -200 -167 -32 -67 -31 -199 1 -260 56
-106 136 -159 253 -169 63 -5 74 -3 131 25 106 53 160 142 161 264 0 184 -182
347 -346 307z"/>
<path d="M5147 4003 c-4 -3 -7 -35 -7 -70 l0 -63 94 0 94 0 4 58 c2 31 0 63
-5 70 -10 13 -168 18 -180 5z"/>
<path d="M5817 4003 c-4 -3 -7 -37 -7 -75 0 -48 4 -68 13 -67 27 1 192 65 192
74 0 6 -40 24 -90 42 -102 36 -99 35 -108 26z"/>
<path d="M5101 3824 c0 -11 3 -14 6 -6 3 7 2 16 -1 19 -3 4 -6 -2 -5 -13z"/>
<path d="M5150 3815 c0 -14 2 -25 4 -25 2 0 6 11 8 25 3 14 1 25 -3 25 -5 0
-9 -11 -9 -25z"/>
<path d="M5240 3815 c0 -14 2 -25 4 -25 2 0 6 11 8 25 3 14 1 25 -3 25 -5 0
-9 -11 -9 -25z"/>
<path d="M5350 3829 c0 -5 5 -7 10 -4 6 3 10 8 10 11 0 2 -4 4 -10 4 -5 0 -10
-5 -10 -11z"/>
<path d="M5860 3813 c0 -22 2 -25 10 -13 13 20 13 40 0 40 -5 0 -10 -12 -10
-27z"/>
<path d="M6010 3825 c0 -8 5 -15 10 -15 6 0 10 7 10 15 0 8 -4 15 -10 15 -5 0
-10 -7 -10 -15z"/>
<path d="M5906 3815 c-3 -9 -6 -18 -6 -19 0 -1 9 -2 21 -3 18 -2 19 0 8 15 -8
9 -14 18 -15 20 -1 2 -4 -4 -8 -13z"/>
<path d="M5980 3822 c0 -6 -8 -13 -17 -15 -16 -4 -16 -5 -1 -6 18 -1 34 16 24
26 -3 4 -6 1 -6 -5z"/>
<path d="M5810 3816 c0 -2 8 -10 18 -17 15 -13 16 -12 3 4 -13 16 -21 21 -21
13z"/>
<path d="M5441 3733 c0 -6 -3 -18 -6 -25 -4 -9 2 -14 15 -15 11 -1 20 2 20 8
0 5 -4 9 -9 9 -5 0 -12 8 -14 18 -3 9 -5 12 -6 5z"/>
<path d="M5480 3724 c0 -10 31 -36 37 -31 3 3 -2 13 -10 22 -16 15 -27 19 -27
9z"/>
<path d="M5543 3723 c4 -3 3 -11 -3 -17 -6 -8 -3 -12 11 -12 10 0 19 1 19 2 0
13 -14 34 -23 34 -6 0 -7 -3 -4 -7z"/>
<path d="M5683 3723 c-17 -6 -17 -20 0 -26 8 -3 13 3 13 14 0 11 0 19 -1 18 0
0 -6 -3 -12 -6z"/>
<path d="M5444 3636 c-3 -7 -4 -40 -2 -72 l3 -59 133 -3 132 -3 0 76 0 75
-130 0 c-101 0 -132 -3 -136 -14z m36 -56 c0 -22 -4 -40 -10 -40 -5 0 -10 18
-10 40 0 22 5 40 10 40 6 0 10 -18 10 -40z m210 -5 c0 -25 -4 -45 -10 -45 -5
0 -10 20 -10 45 0 25 5 45 10 45 6 0 10 -20 10 -45z"/>
<path d="M5494 3426 c-3 -8 -4 -23 -2 -33 3 -15 14 -18 78 -18 l75 0 0 30 0
30 -73 3 c-57 2 -74 0 -78 -12z"/>
<path d="M9145 2140 c-3 -5 -2 -10 4 -10 5 0 13 5 16 10 3 6 2 10 -4 10 -5 0
-13 -4 -16 -10z"/>
</g>
</svg>
